<svg id="account_box_black_24dp" xmlns="http://www.w3.org/2000/svg" width="24" height="24" viewBox="0 0 24 24">
  <g id="Group_693" data-name="Group 693">
    <rect id="Rectangle_455" data-name="Rectangle 455" width="24" height="24" fill="none"/>
    <rect id="Rectangle_456" data-name="Rectangle 456" width="24" height="24" fill="none"/>
  </g>
  <g id="Group_694" data-name="Group 694">
    <path id="Path_774" data-name="Path 774" d="M19,3H5A2.006,2.006,0,0,0,3,5V19a2.006,2.006,0,0,0,2,2H19a2.006,2.006,0,0,0,2-2V5A2.006,2.006,0,0,0,19,3ZM12,6A3.5,3.5,0,1,1,8.5,9.5,3.5,3.5,0,0,1,12,6Zm7,13H5v-.23a2.01,2.01,0,0,1,.76-1.58,9.985,9.985,0,0,1,12.48,0A2.025,2.025,0,0,1,19,18.77Z"/>
  </g>
</svg>
