<svg id="content_copy_black_24dp" xmlns="http://www.w3.org/2000/svg" width="24" height="24" viewBox="0 0 24 24">
  <g id="Group_800" data-name="Group 800">
    <rect id="Rectangle_609" data-name="Rectangle 609" width="24" height="24" fill="none"/>
  </g>
  <g id="Group_801" data-name="Group 801">
    <path id="Path_799" data-name="Path 799" d="M15,20H5V7A1,1,0,0,0,4,6H4A1,1,0,0,0,3,7V20a2.006,2.006,0,0,0,2,2H15a1,1,0,0,0,1-1h0A1,1,0,0,0,15,20Zm5-4V4a2.006,2.006,0,0,0-2-2H9A2.006,2.006,0,0,0,7,4V16a2.006,2.006,0,0,0,2,2h9A2.006,2.006,0,0,0,20,16Zm-2,0H9V4h9Z"/>
  </g>
</svg>
