<svg xmlns="http://www.w3.org/2000/svg" xmlns:xlink="http://www.w3.org/1999/xlink" width="24" height="24" viewBox="0 0 24 24">
  <defs>
    <clipPath id="clip-path">
      <rect id="Rectangle_234" data-name="Rectangle 234" width="20" height="16.515" transform="translate(0 0)" fill="none"/>
    </clipPath>
  </defs>
  <g id="Diamond_24" data-name="Diamond 24" transform="translate(75 -637)">
    <rect id="Rectangle_178" data-name="Rectangle 178" width="24" height="24" transform="translate(-75 637)" fill="#ffffff" opacity="0"/>
    <g id="Group_246" data-name="Group 246" transform="translate(-73 640.742)">
      <path id="Path_310" data-name="Path 310" d="M.229,7.049l8.314,9-3.738-9Z"/>
      <g id="Group_245" data-name="Group 245">
        <g id="Group_244" data-name="Group 244" clip-path="url(#clip-path)">
          <path id="Path_311" data-name="Path 311" d="M7.67,0H4.186a.334.334,0,0,0-.278.147L0,5.88H4.827Z"/>
          <path id="Path_312" data-name="Path 312" d="M20,5.88,16.092.147A.334.334,0,0,0,15.814,0H12.33l2.843,5.88Z"/>
          <path id="Path_313" data-name="Path 313" d="M11.458,16.054l8.314-9H15.2Z"/>
          <path id="Path_314" data-name="Path 314" d="M13.873,5.88C10.95-.166,11.4.772,11.03,0H8.969L6.126,5.88h7.747"/>
          <path id="Path_315" data-name="Path 315" d="M6.07,7.049,10,16.515c.258-.622,3.712-8.942,3.93-9.466Z"/>
        </g>
      </g>
    </g>
  </g>
</svg>
