<svg xmlns="http://www.w3.org/2000/svg" width="32" height="32" viewBox="0 0 32 32">
  <g id="Event_black_32" transform="translate(-73 -667)">
    <rect id="Rectangle_178" data-name="Rectangle 178" width="32" height="32" transform="translate(73 667)" opacity="0"/>
    <path id="calendar_today_FILL1_wght400_GRAD-25_opsz48" d="M8.412,34.2a2.047,2.047,0,0,1-1.517-.664A2.139,2.139,0,0,1,6.25,32V8.637a2.1,2.1,0,0,1,.645-1.5,2.047,2.047,0,0,1,1.517-.664h2.579V5.3a1.134,1.134,0,0,1,1.138-1.1A1.181,1.181,0,0,1,13,4.541a1.092,1.092,0,0,1,.341.8V6.476H26.086V5.3a1.051,1.051,0,0,1,.341-.759,1.135,1.135,0,0,1,.834-.341,1.2,1.2,0,0,1,.853.341,1.065,1.065,0,0,1,.36.8V6.476h2.541a2.109,2.109,0,0,1,1.536.664,2.068,2.068,0,0,1,.664,1.5V32a2.27,2.27,0,0,1-2.2,2.2Zm0-2.2h22.6V15.843H8.412Z" transform="translate(69.75 663.8)"/>
  </g>
</svg>
