<svg xmlns="http://www.w3.org/2000/svg" xmlns:xlink="http://www.w3.org/1999/xlink" width="24" height="24" viewBox="0 0 24 24">
  <defs>
    <clipPath id="clip-path">
      <rect id="Rectangle_470" data-name="Rectangle 470" width="19.974" height="20" fill="none"/>
    </clipPath>
  </defs>
  <g id="Flag" transform="translate(-188 -348)" fill="#fff">
    <rect id="Rectangle_460" data-name="Rectangle 460" width="24" height="24" transform="translate(188 348)" opacity="0"/>
    <g id="Group_704" data-name="Group 704" transform="translate(190.013 350)">
      <g id="Group_704-2" data-name="Group 704" transform="translate(0 0)" clip-path="url(#clip-path)">
        <path id="Path_776" data-name="Path 776" d="M19.96,9.456a1,1,0,0,0-.548-.61A13.258,13.258,0,0,1,16.4,6.759a44.892,44.892,0,0,0,1.081-5.6,1.012,1.012,0,0,0-.41-1.117L17,0h-.585l-.073.046A1.676,1.676,0,0,0,15.957.4a4.336,4.336,0,0,1-1.326,1.045,6,6,0,0,1-2.762.533c-.765,0-1.545-.082-2.3-.158L8.921,1.76a14.224,14.224,0,0,0-3.156-.026A5.708,5.708,0,0,0,2.3,3.44a1.444,1.444,0,0,0-2.235,1.6c.2.744.412,1.486.619,2.228L1.5,10.2q1.217,4.357,2.426,8.714a1.454,1.454,0,0,0,.888,1.066L5.492,20l.163-.043a.749.749,0,0,1,.078-.029,1.289,1.289,0,0,0,.988-1.772L5.607,14.166A.43.43,0,0,0,5.59,14.1a4.569,4.569,0,0,1,1.375-1.133A5.615,5.615,0,0,1,9.716,12.4h.017c.777,0,1.571.082,2.339.159l.3.031a15.246,15.246,0,0,0,3.476.067,5.767,5.767,0,0,0,3.563-1.769,1.913,1.913,0,0,0,.56-1.005V9.545Zm-14.469,9.2a1.8,1.8,0,0,1-.261.076,2.008,2.008,0,0,1-.089-.27L1.931,6.951,1.46,5.268c-.053-.185-.107-.371-.153-.557a.27.27,0,0,1,.019-.223.16.16,0,0,1,.128-.047h.007c.024,0,.1,0,.144.172q.332,1.174.658,2.349l2.751,9.867.414,1.485a1.292,1.292,0,0,1,.062.341m-1.055-8.7Q3.7,7.321,2.961,4.684c-.014-.05-.014-.05.016-.086a4.425,4.425,0,0,1,3.1-1.6,9.8,9.8,0,0,1,.987-.047c.587,0,1.2.044,1.876.11l.438.043a21.518,21.518,0,0,0,3.147.157A6.086,6.086,0,0,0,16.044,2.08c-.031.207-.062.411-.1.614-.215,1.309-.494,2.612-.83,3.873a1.032,1.032,0,0,0,.333,1.1,15.91,15.91,0,0,0,3.141,2.211,4.4,4.4,0,0,1-2.736,1.481,11.4,11.4,0,0,1-2.68.016c-.3-.026-.606-.056-.908-.086A21.839,21.839,0,0,0,9.1,11.131a5.974,5.974,0,0,0-3.69,1.324c-.077.064-.151.131-.227.2Z" transform="translate(0 0)"/>
      </g>
    </g>
  </g>
</svg>
