<svg xmlns="http://www.w3.org/2000/svg" xmlns:xlink="http://www.w3.org/1999/xlink" width="32" height="32" viewBox="0 0 32 32">
                                <defs>
                                  <clipPath id="clip-path">
                                    <rect id="Rectangle_233" data-name="Rectangle 233" width="28" height="28" fill="#ffffff"/>
                                  </clipPath>
                                </defs>
                                <g id="Gift_outline_32" transform="translate(-47.944 -628)" fill="#ffffff">
                                  <rect id="Rectangle_178" data-name="Rectangle 178" width="32" height="32" transform="translate(47.944 628)" fill="#ffffff" opacity="0"/>
                                  <g id="Group_242" data-name="Group 242" transform="translate(49.944 630)">
                                    <g id="Group_241" data-name="Group 241" transform="translate(0 0)" clip-path="url(#clip-path)">
                                      <path id="Path_309" data-name="Path 309" d="M24.369,6.177H21.829a4.141,4.141,0,0,0,.5-1.987A4.2,4.2,0,0,0,18.14,0,3.773,3.773,0,0,0,14.9,1.576a12.15,12.15,0,0,0-1.394,2.739,12.042,12.042,0,0,0-1.394-2.739A3.769,3.769,0,0,0,8.875,0,4.2,4.2,0,0,0,4.684,4.19a4.145,4.145,0,0,0,.5,1.987H2.646A2.649,2.649,0,0,0,0,8.823v1.544a2.652,2.652,0,0,0,1.545,2.406v11.6a2.648,2.648,0,0,0,2.646,2.646H22.824a2.649,2.649,0,0,0,2.646-2.646v-11.6a2.651,2.651,0,0,0,1.544-2.406V8.823a2.648,2.648,0,0,0-2.645-2.646M10.09,13.013v11.8h-5.9a.442.442,0,0,1-.443-.443V13.013ZM6.887,4.19A1.99,1.99,0,0,1,8.875,2.2c1.309,0,1.692.66,2.908,3.743l.09.231h-3A1.99,1.99,0,0,1,6.887,4.19m3.2,4.19v2.43H2.646a.443.443,0,0,1-.443-.443V8.823a.443.443,0,0,1,.443-.443Zm4.633,16.431h-2.43V8.38h2.43ZM24.811,8.823v1.544a.442.442,0,0,1-.442.443H16.926V8.38h7.444a.442.442,0,0,1,.442.443M20.127,4.19A1.989,1.989,0,0,1,18.14,6.177h-3l.092-.232C16.445,2.863,16.828,2.2,18.14,2.2A1.989,1.989,0,0,1,20.127,4.19m3.14,8.823V24.368a.443.443,0,0,1-.443.443h-5.9v-11.8Z" transform="translate(0.524 0.461)"/>
                                    </g>
                                  </g>
                                </g>
                              </svg>