<svg xmlns="http://www.w3.org/2000/svg" width="24" height="24" viewBox="0 0 24 24">
  <g id="Like_black_24" transform="translate(149 -613)">
    <rect id="Rectangle_178" data-name="Rectangle 178" width="24" height="24" transform="translate(-149 613)" opacity="0"/>
    <path id="Path_295" data-name="Path 295" d="M13.346,20.13a2,2,0,0,1-2.689-.01l-.11-.1C5.3,15.27,1.87,12.16,2,8.28A5.46,5.46,0,0,1,4.339,3.99,5.791,5.791,0,0,1,12,5.09a5.781,5.781,0,0,1,7.657-1.1,5.46,5.46,0,0,1,2.339,4.29c.14,3.88-3.3,6.99-8.547,11.76l-.1.09Z" transform="translate(-148.996 613.001)"/>
  </g>
</svg>
