<svg xmlns="http://www.w3.org/2000/svg" width="24" height="24" viewBox="0 0 24 24">
  <g id="Like_outline_24" transform="translate(149 -613)" fill="#ffffff">
    <rect id="Rectangle_178" data-name="Rectangle 178" width="24" height="24" transform="translate(-149 613)" opacity="0"/>
    <path id="Path_295" data-name="Path 295" d="M12.007,18.644l.154-.139A60.461,60.461,0,0,0,18.2,12.552a6.377,6.377,0,0,0,1.8-4.2,3.466,3.466,0,0,0-1.466-2.708l-.005,0A3.524,3.524,0,0,0,16.5,5a3.975,3.975,0,0,0-2.98,1.39L12,8.17,10.475,6.389A3.971,3.971,0,0,0,7.5,5a3.55,3.55,0,0,0-2.032.639A3.465,3.465,0,0,0,4,8.347a6.422,6.422,0,0,0,1.815,4.221,60.506,60.506,0,0,0,6.079,5.972l.114.1m0,2a1.986,1.986,0,0,1-1.35-.526l-.11-.1C5.3,15.27,1.87,12.16,2,8.28A5.46,5.46,0,0,1,4.339,3.99,5.791,5.791,0,0,1,12,5.09a5.781,5.781,0,0,1,7.657-1.1,5.46,5.46,0,0,1,2.339,4.29c.14,3.88-3.3,6.99-8.547,11.76l-.1.09A1.988,1.988,0,0,1,12.006,20.646Z" transform="translate(-148.996 613.001)"/>
  </g>
</svg>
