<svg xmlns="http://www.w3.org/2000/svg" width="36.05" height="36" viewBox="0 0 36.05 36">
  <path id="add_photo_alternate_FILL0_wght400_GRAD0_opsz48" d="M9,42a2.878,2.878,0,0,1-2.1-.9A2.878,2.878,0,0,1,6,39V9a2.878,2.878,0,0,1,.9-2.1A2.878,2.878,0,0,1,9,6H27.95a1.454,1.454,0,0,1,1.5,1.5A1.454,1.454,0,0,1,27.95,9H9V39H39V20.1a1.5,1.5,0,1,1,3,0V39a3.076,3.076,0,0,1-3,3ZM36.5,17.1A1.454,1.454,0,0,1,35,15.6V13.05H32.45a1.5,1.5,0,1,1,0-3H35V7.5a1.5,1.5,0,1,1,3,0v2.55h2.55a1.5,1.5,0,1,1,0,3H38V15.6a1.454,1.454,0,0,1-1.5,1.5ZM13.55,33.9H34.5a.727.727,0,0,0,.6-1.2l-5.7-7.6a.75.75,0,0,0-1.2,0l-5.75,7.55-4.1-5.4a.75.75,0,0,0-1.2,0l-4.2,5.45a.734.734,0,0,0-.025.8A.691.691,0,0,0,13.55,33.9ZM9,20.1v0Z" transform="translate(-6 -6)"/>
</svg>
