<svg id="landscape_crop" data-name="landscape crop" xmlns="http://www.w3.org/2000/svg" width="24" height="24" viewBox="0 0 24 24">
  <path id="Path_800" data-name="Path 800" d="M0,0H24V24H0Z" fill="none"/>
  <path id="Path_801" data-name="Path 801" d="M7,5V8A1,1,0,0,0,9,8V6a1,1,0,0,1,1-1h2a1,1,0,0,0,0-2H9A2.006,2.006,0,0,0,7,5ZM8,15a1,1,0,0,0-1,1v3a2.006,2.006,0,0,0,2,2h3a1,1,0,0,0,0-2H10a1,1,0,0,1-1-1V16A1,1,0,0,0,8,15Zm11,3a1,1,0,0,1-1,1H16a1,1,0,0,0,0,2h3a2.006,2.006,0,0,0,2-2V16a1,1,0,0,0-2,0ZM19,3H16a1,1,0,0,0,0,2h2a1,1,0,0,1,1,1V8a1,1,0,0,0,2,0V5A2.006,2.006,0,0,0,19,3Z" transform="translate(0 26) rotate(-90)"/>
</svg>
