<svg xmlns="http://www.w3.org/2000/svg" width="32" height="32" viewBox="0 0 32 32">
  <g id="Group_793" data-name="Group 793" fill="#747474" transform="translate(-203 -2462)">
    <rect id="Rectangle_598" data-name="Rectangle 598" width="32" height="32" transform="translate(203 2462)" fill="#ccc" opacity="0"/>
    <path id="location_on_FILL1_wght400_GRAD0_opsz48" d="M20.183,18.848A2.665,2.665,0,0,0,22.067,14.3,2.665,2.665,0,0,0,18.3,18.067,2.568,2.568,0,0,0,20.183,18.848ZM20.221,34a1.556,1.556,0,0,1-.495-.076,1.348,1.348,0,0,1-.419-.228,48.558,48.558,0,0,1-8.49-9.251A14.653,14.653,0,0,1,8,16.487a11.777,11.777,0,0,1,3.674-9.1,12.378,12.378,0,0,1,17.018,0,11.777,11.777,0,0,1,3.674,9.1,14.653,14.653,0,0,1-2.817,7.957,48.559,48.559,0,0,1-8.49,9.251,1.411,1.411,0,0,1-.4.228,1.271,1.271,0,0,1-.438.076Z" transform="translate(199 2459)"/>
  </g>
</svg>
