<svg xmlns="http://www.w3.org/2000/svg" width="25" height="24.963" viewBox="0 0 25 24.963">
  <path id="search_FILL1_wght300_GRAD0_opsz40" d="M29.008,30.293l-8.776-8.776a7.889,7.889,0,0,1-2.563,1.475,8.937,8.937,0,0,1-3.005.516,8.712,8.712,0,0,1-6.379-2.6,8.579,8.579,0,0,1-2.618-6.324A8.622,8.622,0,0,1,8.285,8.224a8.669,8.669,0,0,1,6.342-2.6,8.668,8.668,0,0,1,6.342,2.6,8.621,8.621,0,0,1,2.619,6.361,8.81,8.81,0,0,1-2.028,5.6L30.409,29a.851.851,0,0,1,.258.627.916.916,0,0,1-.3.664.936.936,0,0,1-1.364,0ZM14.627,21.665a7.02,7.02,0,0,0,7.08-7.08A6.9,6.9,0,0,0,19.66,9.534a6.808,6.808,0,0,0-5.033-2.065A6.888,6.888,0,0,0,9.594,9.534,6.839,6.839,0,0,0,7.51,14.585,6.8,6.8,0,0,0,9.594,19.6,6.889,6.889,0,0,0,14.627,21.665Z" transform="translate(-5.667 -5.625)"/>
</svg>
