<svg xmlns="http://www.w3.org/2000/svg" xmlns:xlink="http://www.w3.org/1999/xlink" width="24" height="24" viewBox="0 0 24 24">
  <defs>
    <clipPath id="clip-path">
      <rect id="Rectangle_231" data-name="Rectangle 231" width="20.25" height="16.991" transform="translate(0 0)" fill="none"/>
    </clipPath>
  </defs>
  <g id="Share_outline_24" transform="translate(-19 -649)">
    <rect id="Rectangle_178" data-name="Rectangle 178" width="24" height="24" transform="translate(19 649)" fill="#ff8080" opacity="0"/>
    <g id="Group_235" data-name="Group 235" transform="translate(20.875 652.504)">
      <g id="Group_234" data-name="Group 234" clip-path="url(#clip-path)">
        <path id="Path_305" data-name="Path 305" d="M19.532,5.126,15,.6A1.745,1.745,0,0,0,13.789,0c-.57,0-1.237.423-1.237,1.614V3.037A13.263,13.263,0,0,0,0,16.28a.708.708,0,0,0,.486.674.685.685,0,0,0,.225.037.717.717,0,0,0,.569-.283,14.914,14.914,0,0,1,11.272-5.976V12.12c0,1.192.667,1.614,1.237,1.614a1.742,1.742,0,0,0,1.215-.6l4.527-4.528a2.469,2.469,0,0,0,0-3.482M13.263,9.294a16.227,16.227,0,0,0-7.45,1.787,16.437,16.437,0,0,0-4.2,3.072A11.91,11.91,0,0,1,13.263,4.44a.712.712,0,0,0,.711-.71V1.581A.188.188,0,0,1,14,1.606l4.528,4.527a1.045,1.045,0,0,1,0,1.469L14,12.13a.188.188,0,0,1-.025.024V10.005a.712.712,0,0,0-.711-.711"/>
      </g>
    </g>
  </g>
</svg>
