<svg id="campaign_black_24dp" xmlns="http://www.w3.org/2000/svg" width="24" height="24" viewBox="0 0 24 24">
  <g id="Group_758" data-name="Group 758">
    <rect id="Rectangle_539" data-name="Rectangle 539" width="24" height="24" fill="none"/>
  </g>
  <path id="Path_789" data-name="Path 789" d="M18,11v2h4V11Z"/>
  <path id="Path_790" data-name="Path 790" d="M16,17.61c.96.71,2.21,1.65,3.2,2.39.4-.53.8-1.07,1.2-1.6-.99-.74-2.24-1.68-3.2-2.4C16.8,16.54,16.4,17.08,16,17.61Z"/>
  <path id="Path_791" data-name="Path 791" d="M20.4,5.6c-.4-.53-.8-1.07-1.2-1.6-.99.74-2.24,1.68-3.2,2.4.4.53.8,1.07,1.2,1.6C18.16,7.28,19.41,6.35,20.4,5.6Z"/>
  <path id="Path_792" data-name="Path 792" d="M4,9a2.006,2.006,0,0,0-2,2v2a2.006,2.006,0,0,0,2,2H5v4H7V15H8l5,3V6L8,9Zm5.03,1.71L11,9.53v4.94L9.03,13.29,8.55,13H4V11H8.55Z"/>
  <path id="Path_793" data-name="Path 793" d="M15.5,12A4.48,4.48,0,0,0,14,8.65v6.69A4.442,4.442,0,0,0,15.5,12Z"/>
</svg>
